<?xml version="1.0" encoding="utf-8"?>
<svg width="1484px" height="519px" viewBox="0 0 1484 519" version="1.1" xmlns:xlink="http://www.w3.org/1999/xlink" xmlns="http://www.w3.org/2000/svg">
  <g id="Group">
    <path d="M236.475 92.5572L270.257 92.5572L270.257 148.091L236.475 148.091L236.475 92.5572Z" id="Rectangle-15" fill="#D0A7FD" fill-rule="evenodd" stroke="none" />
    <path d="M123.063 370.229L156.845 370.229L156.845 425.763L123.063 425.763L123.063 370.229Z" id="Rectangle-34" fill="#D0A7FD" fill-rule="evenodd" stroke="none" />
    <path d="M610.491 0L682.881 0L682.881 55.5343L610.491 55.5343L610.491 0Z" id="Rectangle-13" fill="#FF7B72" fill-rule="evenodd" stroke="none" />
    <path d="M270.257 92.5572L506.731 92.5572L506.731 148.091L270.257 148.091L270.257 92.5572Z" id="Rectangle-12" fill="#DFDFDF" fill-rule="evenodd" stroke="none" />
    <path d="M270.257 277.672L494.666 277.672L494.666 333.206L270.257 333.206L270.257 277.672Z" id="Rectangle-24" fill="#DFDFDF" fill-rule="evenodd" stroke="none" />
    <path d="M369.19 370.229L600.839 370.229L600.839 425.763L369.19 425.763L369.19 370.229Z" id="Rectangle-32" fill="#DFDFDF" fill-rule="evenodd" stroke="none" />
    <path d="M707.011 0L745.619 0L745.619 55.5343L707.011 55.5343L707.011 0Z" id="Rectangle-11" fill="#FFD700" fill-rule="evenodd" stroke="none" />
    <path d="M0 462.786L38.6081 462.786L38.6081 518.32L0 518.32L0 462.786Z" id="Rectangle-35" fill="#FFD700" fill-rule="evenodd" stroke="none" />
    <path d="M494.667 0L586.361 0L586.361 55.5343L494.667 55.5343L494.667 0Z" id="Rectangle-6" fill="#FFD700" fill-rule="evenodd" stroke="none" />
    <path d="M1312.68 277.672L1382.65 277.672L1382.65 333.206L1312.68 333.206L1312.68 277.672Z" id="Rectangle-29" fill="#FFD700" fill-rule="evenodd" stroke="none" />
    <path d="M0.000732422 0L168.911 0L168.911 55.5343L0.000732422 55.5343L0.000732422 0Z" id="Rectangle" fill="#FF7B72" fill-rule="evenodd" stroke="none" />
    <path d="M132.716 92.5572L212.345 92.5572L212.345 148.091L132.716 148.091L132.716 92.5572Z" id="Rectangle-7" fill="#FF7B72" fill-rule="evenodd" stroke="none" />
    <path d="M270.257 185.114L434.341 185.114L434.341 240.649L270.257 240.649L270.257 185.114Z" id="Rectangle-17" fill="#FF7B72" fill-rule="evenodd" stroke="none" />
    <path d="M180.975 370.229L345.06 370.229L345.06 425.763L180.975 425.763L180.975 370.229Z" id="Rectangle-33" fill="#FF7B72" fill-rule="evenodd" stroke="none" />
    <path d="M193.041 0L410.211 0L410.211 55.5343L193.041 55.5343L193.041 0Z" id="Rectangle-2" fill="#D0A7FD" fill-rule="evenodd" stroke="none" />
    <path d="M1290.96 92.5572L1324.74 92.5572L1324.74 148.091L1290.96 148.091L1290.96 92.5572Z" id="Rectangle-8" fill="#D0A7FD" fill-rule="evenodd" stroke="none" />
    <path d="M1097.92 185.114L1245.11 185.114L1245.11 240.648L1097.92 240.648L1097.92 185.114Z" id="Rectangle-21" fill="#D0A7FD" fill-rule="evenodd" stroke="none" />
    <path d="M943.486 277.672L1312.68 277.672L1312.68 333.206L943.486 333.206L943.486 277.672Z" id="Rectangle-28" fill="#D0A7FD" fill-rule="evenodd" stroke="none" />
    <path d="M1348.87 92.5572L1382.65 92.5572L1382.65 148.091L1348.87 148.091L1348.87 92.5572Z" id="Rectangle-16" fill="#D0A7FD" fill-rule="evenodd" stroke="none" />
    <path d="M600.839 370.229L1078.61 370.229L1078.61 425.763L600.839 425.763L600.839 370.229Z" id="Rectangle-31" fill="#D0A7FD" fill-rule="evenodd" stroke="none" />
    <path d="M506.732 92.5572L779.401 92.5572L779.401 148.091L506.732 148.091L506.732 92.5572Z" id="Rectangle-10" fill="#D0A7FD" fill-rule="evenodd" stroke="none" />
    <path d="M494.667 277.672L670.816 277.672L670.816 333.206L494.667 333.206L494.667 277.672Z" id="Rectangle-25" fill="#D0A7FD" fill-rule="evenodd" stroke="none" />
    <path d="M842.139 92.5572L1097.92 92.5572L1097.92 148.091L842.139 148.091L842.139 92.5572Z" id="Rectangle-9" fill="#DFDFDF" fill-rule="evenodd" stroke="none" />
    <path d="M767.336 185.114L1097.92 185.114L1097.92 240.649L767.336 240.649L767.336 185.114Z" id="Rectangle-20" fill="#DFDFDF" fill-rule="evenodd" stroke="none" />
    <path d="M912.117 277.672L943.486 277.672L943.486 333.206L912.117 333.206L912.117 277.672Z" id="Rectangle-27" fill="#DFDFDF" fill-rule="evenodd" stroke="none" />
    <path d="M434.342 0L470.537 0L470.537 55.5343L434.342 55.5343L434.342 0Z" id="Rectangle-3" fill="#FF7B72" fill-rule="evenodd" stroke="none" />
    <path d="M707.011 185.114L743.206 185.114L743.206 240.649L707.011 240.649L707.011 185.114Z" id="Rectangle-19" fill="#FF7B72" fill-rule="evenodd" stroke="none" />
    <path d="M779.401 92.5572L842.139 92.5572L842.139 148.091L779.401 148.091L779.401 92.5572Z" id="Rectangle-4" fill="#179FFF" fill-rule="evenodd" stroke="none" />
    <path d="M458.471 185.114L682.881 185.114L682.881 240.649L458.471 240.649L458.471 185.114Z" id="Rectangle-18" fill="#179FFF" fill-rule="evenodd" stroke="none" />
    <path d="M670.816 277.672L912.116 277.672L912.116 333.206L670.816 333.206L670.816 277.672Z" id="Rectangle-26" fill="#179FFF" fill-rule="evenodd" stroke="none" />
    <path d="M1122.05 92.5572L1194.44 92.5572L1194.44 148.091L1122.05 148.091L1122.05 92.5572Z" id="Rectangle-5" fill="#FF7B72" fill-rule="evenodd" stroke="none" />
    <path d="M1218.57 92.5572L1290.96 92.5572L1290.96 148.091L1218.57 148.091L1218.57 92.5572Z" id="Rectangle-14" fill="#179FFF" fill-rule="evenodd" stroke="none" />
    <path d="M1382.65 277.672L1416.44 277.672L1416.44 333.206L1382.65 333.206L1382.65 277.672Z" id="Rectangle-30" fill="#179FFF" fill-rule="evenodd" stroke="none" />
    <path d="M1245.11 185.114L1484 185.114L1484 240.649L1245.11 240.649L1245.11 185.114Z" id="Rectangle-23" fill="#179FFF" fill-rule="evenodd" stroke="none" />
  </g>
</svg>