<?xml version="1.0" encoding="utf-8"?>
<svg width="631px" height="235px" viewBox="0 0 631 235" version="1.1" xmlns:xlink="http://www.w3.org/1999/xlink" xmlns="http://www.w3.org/2000/svg">
  <defs>
    <path d="M0 0L48.1559 0L48.1559 48.1559L0 48.1559L0 0Z" id="path_1" />
    <clipPath id="mask_1">
      <use xlink:href="#path_1" />
    </clipPath>
  </defs>
  <g id="Group-10" transform="translate(5 5)">
    <g id="Group-9">
      <g id="Group-7" transform="translate(74.42212 3.1101074)">
        <path d="M0 27.4221C0 12.2773 12.2773 0 27.4221 0C42.567 0 54.8443 12.2773 54.8443 27.4221C54.8443 42.567 42.567 54.8443 27.4221 54.8443C12.2773 54.8443 0 42.567 0 27.4221Z" id="Ellipse" fill="#2B2D42" fill-rule="evenodd" stroke="#2B2D42" stroke-opacity="0.49803922" stroke-width="10" />
        <g id="Contacts-icon" transform="translate(4.0128784 3.3441162)">
          <path d="M0 0L48.1559 0L48.1559 48.1559L0 48.1559L0 0Z" id="Background" fill="none" fill-rule="evenodd" stroke="none" />
          <g clip-path="url(#mask_1)">
            <path d="M23.7771 10.2332C19.5002 10.2332 16.012 13.7214 16.012 17.9983C16.012 22.2752 19.5002 25.7634 23.7771 25.7634C28.054 25.7634 31.5423 22.2752 31.5423 17.9983C31.5423 13.7214 28.054 10.2332 23.7771 10.2332L23.7771 10.2332ZM23.7771 25.7634C16.6489 25.7634 10.8351 31.5772 10.8351 38.7053L13.4235 38.7053C13.4235 32.9725 18.0442 28.3518 23.7771 28.3518C29.5099 28.3518 34.1306 32.9725 34.1306 38.7053L36.719 38.7053C36.719 31.5772 30.9052 25.7634 23.7771 25.7634L23.7771 25.7634ZM23.7771 12.8215C26.6486 12.8215 28.9539 15.1268 28.9539 17.9983C28.9539 20.8698 26.6486 23.1751 23.7771 23.1751C20.9056 23.1751 18.6003 20.8698 18.6003 17.9983C18.6003 15.1268 20.9056 12.8215 23.7771 12.8215L23.7771 12.8215Z" id="Shape" fill="#FFFFFF" fill-rule="evenodd" stroke="none" />
          </g>
        </g>
      </g>
      <path d="M268.144 16.6965L612.146 16.6965Q612.342 16.6965 612.538 16.7062Q612.734 16.7158 612.93 16.7351Q613.125 16.7543 613.319 16.7831Q613.514 16.8119 613.706 16.8502Q613.899 16.8885 614.089 16.9363Q614.28 16.984 614.468 17.041Q614.656 17.098 614.84 17.1641Q615.025 17.2303 615.207 17.3054Q615.388 17.3806 615.566 17.4645Q615.743 17.5485 615.916 17.641Q616.09 17.7336 616.258 17.8346Q616.426 17.9355 616.59 18.0446Q616.753 18.1537 616.911 18.2707Q617.068 18.3876 617.22 18.5122Q617.372 18.6368 617.518 18.7687Q617.663 18.9005 617.802 19.0394Q617.941 19.1782 618.073 19.3237Q618.204 19.4692 618.329 19.621Q618.454 19.7728 618.571 19.9305Q618.688 20.0883 618.797 20.2515Q618.906 20.4148 619.007 20.5832Q619.108 20.7516 619.2 20.9248Q619.293 21.098 619.377 21.2755Q619.461 21.453 619.536 21.6344Q619.611 21.8159 619.677 22.0007Q619.743 22.1856 619.8 22.3735Q619.857 22.5615 619.905 22.7519Q619.953 22.9424 619.991 23.135Q620.029 23.3276 620.058 23.5218Q620.087 23.7161 620.106 23.9115Q620.125 24.1069 620.135 24.303Q620.145 24.4992 620.145 24.6955L620.145 35.2472Q620.145 35.4436 620.135 35.6397Q620.125 35.8358 620.106 36.0313Q620.087 36.2267 620.058 36.4209Q620.029 36.6151 619.991 36.8077Q619.953 37.0003 619.905 37.1908Q619.857 37.3813 619.8 37.5692Q619.743 37.7571 619.677 37.942Q619.611 38.1269 619.536 38.3083Q619.461 38.4897 619.377 38.6672Q619.293 38.8447 619.2 39.0179Q619.108 39.1911 619.007 39.3595Q618.906 39.5279 618.797 39.6912Q618.688 39.8545 618.571 40.0122Q618.454 40.1699 618.329 40.3217Q618.204 40.4735 618.073 40.619Q617.941 40.7645 617.802 40.9034Q617.663 41.0422 617.518 41.1741Q617.372 41.3059 617.22 41.4305Q617.068 41.5551 616.911 41.6721Q616.753 41.789 616.59 41.8981Q616.426 42.0072 616.258 42.1082Q616.09 42.2091 615.916 42.3017Q615.743 42.3943 615.566 42.4782Q615.388 42.5622 615.207 42.6373Q615.025 42.7125 614.84 42.7786Q614.656 42.8448 614.468 42.9018Q614.28 42.9588 614.089 43.0065Q613.899 43.0542 613.706 43.0925Q613.514 43.1308 613.319 43.1596Q613.125 43.1884 612.93 43.2077Q612.734 43.2269 612.538 43.2366Q612.342 43.2462 612.146 43.2462L268.144 43.2462Q267.947 43.2462 267.751 43.2366Q267.555 43.2269 267.36 43.2077Q267.164 43.1884 266.97 43.1596Q266.776 43.1308 266.583 43.0925Q266.391 43.0542 266.2 43.0065Q266.01 42.9588 265.822 42.9018Q265.634 42.8448 265.449 42.7786Q265.264 42.7125 265.083 42.6373Q264.901 42.5622 264.724 42.4782Q264.546 42.3943 264.373 42.3017Q264.2 42.2091 264.031 42.1082Q263.863 42.0072 263.7 41.8981Q263.536 41.789 263.379 41.6721Q263.221 41.5551 263.069 41.4305Q262.917 41.3059 262.772 41.1741Q262.626 41.0422 262.488 40.9034Q262.349 40.7645 262.217 40.619Q262.085 40.4735 261.96 40.3217Q261.836 40.1699 261.719 40.0122Q261.602 39.8545 261.493 39.6912Q261.384 39.5279 261.283 39.3595Q261.182 39.1911 261.089 39.0179Q260.997 38.8447 260.913 38.6672Q260.829 38.4897 260.754 38.3083Q260.678 38.1269 260.612 37.942Q260.546 37.7571 260.489 37.5692Q260.432 37.3813 260.384 37.1908Q260.337 37.0003 260.298 36.8077Q260.26 36.6151 260.231 36.4209Q260.203 36.2267 260.183 36.0313Q260.164 35.8358 260.154 35.6397Q260.145 35.4436 260.145 35.2472L260.145 24.6955Q260.145 24.4992 260.154 24.303Q260.164 24.1069 260.183 23.9115Q260.203 23.7161 260.231 23.5218Q260.26 23.3276 260.298 23.135Q260.337 22.9424 260.384 22.7519Q260.432 22.5615 260.489 22.3735Q260.546 22.1856 260.612 22.0007Q260.678 21.8159 260.754 21.6344Q260.829 21.453 260.913 21.2755Q260.997 21.098 261.089 20.9248Q261.182 20.7516 261.283 20.5832Q261.384 20.4148 261.493 20.2515Q261.602 20.0883 261.719 19.9305Q261.836 19.7728 261.96 19.621Q262.085 19.4692 262.217 19.3237Q262.349 19.1782 262.488 19.0394Q262.626 18.9005 262.772 18.7687Q262.917 18.6368 263.069 18.5122Q263.221 18.3876 263.379 18.2707Q263.536 18.1537 263.7 18.0446Q263.863 17.9355 264.031 17.8346Q264.2 17.7336 264.373 17.641Q264.546 17.5485 264.724 17.4645Q264.901 17.3806 265.083 17.3054Q265.264 17.2303 265.449 17.1641Q265.634 17.098 265.822 17.041Q266.01 16.984 266.2 16.9363Q266.391 16.8885 266.583 16.8502Q266.776 16.8119 266.97 16.7831Q267.164 16.7543 267.36 16.7351Q267.555 16.7158 267.751 16.7062Q267.947 16.6965 268.144 16.6965Z" id="Rectangle" fill="#D3D3D3" fill-rule="evenodd" stroke="none" />
      <path d="M155.962 16.6964L233.449 16.6964Q233.645 16.6964 233.841 16.706Q234.038 16.7157 234.233 16.7349Q234.428 16.7542 234.623 16.783Q234.817 16.8118 235.009 16.8501Q235.202 16.8884 235.393 16.9361Q235.583 16.9838 235.771 17.0408Q235.959 17.0978 236.144 17.164Q236.329 17.2302 236.51 17.3053Q236.691 17.3804 236.869 17.4644Q237.046 17.5484 237.22 17.6409Q237.393 17.7335 237.561 17.8344Q237.73 17.9354 237.893 18.0445Q238.056 18.1536 238.214 18.2706Q238.372 18.3875 238.523 18.5121Q238.675 18.6367 238.821 18.7685Q238.966 18.9004 239.105 19.0393Q239.244 19.1781 239.376 19.3236Q239.508 19.4691 239.632 19.6209Q239.757 19.7727 239.874 19.9304Q239.991 20.0881 240.1 20.2514Q240.209 20.4147 240.31 20.5831Q240.411 20.7515 240.503 20.9247Q240.596 21.0979 240.68 21.2754Q240.764 21.4529 240.839 21.6343Q240.914 21.8157 240.98 22.0006Q241.046 22.1855 241.103 22.3734Q241.16 22.5613 241.208 22.7518Q241.256 22.9423 241.294 23.1349Q241.333 23.3275 241.361 23.5217Q241.39 23.716 241.409 23.9114Q241.429 24.1068 241.438 24.3029Q241.448 24.499 241.448 24.6954L241.448 35.2471Q241.448 35.4435 241.438 35.6396Q241.429 35.8357 241.409 36.0311Q241.39 36.2265 241.361 36.4208Q241.333 36.615 241.294 36.8076Q241.256 37.0002 241.208 37.1907Q241.16 37.3812 241.103 37.5691Q241.046 37.757 240.98 37.9419Q240.914 38.1267 240.839 38.3082Q240.764 38.4896 240.68 38.6671Q240.596 38.8446 240.503 39.0178Q240.411 39.191 240.31 39.3594Q240.209 39.5278 240.1 39.6911Q239.991 39.8544 239.874 40.0121Q239.757 40.1698 239.632 40.3216Q239.508 40.4734 239.376 40.6189Q239.244 40.7644 239.105 40.9032Q238.966 41.0421 238.821 41.174Q238.675 41.3058 238.523 41.4304Q238.372 41.555 238.214 41.6719Q238.056 41.7889 237.893 41.898Q237.73 42.0071 237.561 42.1081Q237.393 42.209 237.22 42.3016Q237.046 42.3941 236.869 42.4781Q236.691 42.562 236.51 42.6372Q236.329 42.7123 236.144 42.7785Q235.959 42.8446 235.771 42.9016Q235.583 42.9586 235.393 43.0064Q235.202 43.0541 235.009 43.0924Q234.817 43.1307 234.623 43.1595Q234.428 43.1883 234.233 43.2076Q234.038 43.2268 233.841 43.2365Q233.645 43.2461 233.449 43.2461L155.962 43.2461Q155.766 43.2461 155.57 43.2364Q155.374 43.2268 155.178 43.2076Q154.983 43.1883 154.789 43.1595Q154.594 43.1307 154.402 43.0924Q154.209 43.0541 154.019 43.0064Q153.828 42.9586 153.64 42.9016Q153.452 42.8447 153.268 42.7785Q153.083 42.7123 152.901 42.6372Q152.72 42.562 152.542 42.4781Q152.365 42.3941 152.192 42.3016Q152.018 42.209 151.85 42.1081Q151.682 42.0071 151.518 41.898Q151.355 41.7889 151.197 41.6719Q151.04 41.555 150.888 41.4304Q150.736 41.3058 150.591 41.174Q150.445 41.0421 150.306 40.9032Q150.167 40.7644 150.035 40.6189Q149.904 40.4734 149.779 40.3216Q149.654 40.1698 149.538 40.0121Q149.421 39.8544 149.311 39.6911Q149.202 39.5278 149.101 39.3594Q149 39.191 148.908 39.0178Q148.815 38.8446 148.731 38.6671Q148.647 38.4896 148.572 38.3082Q148.497 38.1267 148.431 37.9419Q148.365 37.757 148.308 37.5691Q148.251 37.3812 148.203 37.1907Q148.155 37.0002 148.117 36.8076Q148.079 36.615 148.05 36.4208Q148.021 36.2265 148.002 36.0311Q147.983 35.8357 147.973 35.6396Q147.963 35.4435 147.963 35.2471L147.963 24.6954Q147.963 24.499 147.973 24.3029Q147.983 24.1068 148.002 23.9114Q148.021 23.716 148.05 23.5217Q148.079 23.3275 148.117 23.1349Q148.155 22.9423 148.203 22.7518Q148.251 22.5613 148.308 22.3734Q148.365 22.1855 148.431 22.0006Q148.497 21.8157 148.572 21.6343Q148.647 21.4529 148.731 21.2754Q148.815 21.0979 148.908 20.9247Q149 20.7515 149.101 20.5831Q149.202 20.4147 149.311 20.2514Q149.421 20.0881 149.538 19.9304Q149.654 19.7727 149.779 19.6209Q149.904 19.4691 150.036 19.3236Q150.167 19.1781 150.306 19.0393Q150.445 18.9004 150.591 18.7685Q150.736 18.6367 150.888 18.5121Q151.04 18.3875 151.197 18.2706Q151.355 18.1536 151.518 18.0445Q151.682 17.9354 151.85 17.8344Q152.018 17.7335 152.192 17.6409Q152.365 17.5484 152.542 17.4644Q152.72 17.3804 152.901 17.3053Q153.083 17.2302 153.268 17.164Q153.452 17.0978 153.64 17.0408Q153.828 16.9838 154.019 16.9361Q154.209 16.8884 154.402 16.8501Q154.594 16.8118 154.789 16.783Q154.983 16.7542 155.178 16.7349Q155.374 16.7157 155.57 16.706Q155.766 16.6964 155.962 16.6964Z" id="Rectangle-2" fill="#D3D3D3" fill-rule="evenodd" stroke="none" />
      <g id="Group-7" transform="translate(74.42212 85.1272)">
        <path d="M0 27.4221C0 12.2773 12.2773 0 27.4221 0C42.567 0 54.8443 12.2773 54.8443 27.4221C54.8443 42.567 42.567 54.8443 27.4221 54.8443C12.2773 54.8443 0 42.567 0 27.4221Z" id="Ellipse" fill="#2B2D42" fill-rule="evenodd" stroke="#2B2D42" stroke-opacity="0.49803922" stroke-width="10" />
        <g id="Contacts-icon" transform="translate(4.0128784 3.3441162)">
          <path d="M0 0L48.1559 0L48.1559 48.1559L0 48.1559L0 0Z" id="Background" fill="none" fill-rule="evenodd" stroke="none" />
          <g clip-path="url(#mask_1)">
            <path d="M23.7771 10.2332C19.5002 10.2332 16.012 13.7214 16.012 17.9983C16.012 22.2752 19.5002 25.7635 23.7771 25.7635C28.054 25.7635 31.5423 22.2752 31.5423 17.9983C31.5423 13.7214 28.054 10.2332 23.7771 10.2332L23.7771 10.2332ZM23.7771 25.7634C16.6489 25.7634 10.8351 31.5772 10.8351 38.7053L13.4235 38.7053C13.4235 32.9725 18.0442 28.3518 23.7771 28.3518C29.5099 28.3518 34.1306 32.9725 34.1306 38.7053L36.719 38.7053C36.719 31.5772 30.9052 25.7634 23.7771 25.7634L23.7771 25.7634ZM23.7771 12.8215C26.6486 12.8215 28.9539 15.1268 28.9539 17.9983C28.9539 20.8698 26.6486 23.1751 23.7771 23.1751C20.9056 23.1751 18.6003 20.8698 18.6003 17.9983C18.6003 15.1268 20.9056 12.8215 23.7771 12.8215L23.7771 12.8215Z" id="Shape" fill="#FFFFFF" fill-rule="evenodd" stroke="none" />
          </g>
        </g>
      </g>
      <path d="M354.15 98.7135L612.152 98.7135Q612.348 98.7135 612.544 98.7231Q612.74 98.7328 612.936 98.752Q613.131 98.7713 613.325 98.8001Q613.52 98.8289 613.712 98.8672Q613.905 98.9055 614.095 98.9532Q614.286 99.0009 614.474 99.0579Q614.661 99.1149 614.846 99.1811Q615.031 99.2472 615.213 99.3224Q615.394 99.3975 615.572 99.4815Q615.749 99.5654 615.922 99.658Q616.095 99.7506 616.264 99.8515Q616.432 99.9525 616.596 100.062Q616.759 100.171 616.917 100.288Q617.074 100.405 617.226 100.529Q617.378 100.654 617.523 100.786Q617.669 100.917 617.808 101.056Q617.947 101.195 618.078 101.341Q618.21 101.486 618.335 101.638Q618.459 101.79 618.576 101.947Q618.693 102.105 618.802 102.268Q618.912 102.432 619.013 102.6Q619.113 102.769 619.206 102.942Q619.299 103.115 619.383 103.292Q619.466 103.47 619.542 103.651Q619.617 103.833 619.683 104.018Q619.749 104.203 619.806 104.391Q619.863 104.578 619.911 104.769Q619.959 104.959 619.997 105.152Q620.035 105.345 620.064 105.539Q620.093 105.733 620.112 105.928Q620.131 106.124 620.141 106.32Q620.151 106.516 620.151 106.713L620.151 117.264Q620.151 117.461 620.141 117.657Q620.131 117.853 620.112 118.048Q620.093 118.244 620.064 118.438Q620.035 118.632 619.997 118.825Q619.959 119.017 619.911 119.208Q619.863 119.398 619.806 119.586Q619.749 119.774 619.683 119.959Q619.617 120.144 619.542 120.325Q619.466 120.507 619.383 120.684Q619.299 120.862 619.206 121.035Q619.113 121.208 619.013 121.376Q618.912 121.545 618.802 121.708Q618.693 121.871 618.576 122.029Q618.459 122.187 618.335 122.339Q618.21 122.49 618.078 122.636Q617.947 122.781 617.808 122.92Q617.669 123.059 617.523 123.191Q617.378 123.323 617.226 123.447Q617.074 123.572 616.917 123.689Q616.759 123.806 616.596 123.915Q616.432 124.024 616.264 124.125Q616.095 124.226 615.922 124.319Q615.749 124.411 615.572 124.495Q615.394 124.579 615.213 124.654Q615.031 124.729 614.846 124.796Q614.661 124.862 614.474 124.919Q614.286 124.976 614.095 125.023Q613.905 125.071 613.712 125.109Q613.52 125.148 613.325 125.177Q613.131 125.205 612.936 125.225Q612.74 125.244 612.544 125.254Q612.348 125.263 612.152 125.263L354.15 125.263Q353.953 125.263 353.757 125.254Q353.561 125.244 353.366 125.225Q353.17 125.205 352.976 125.177Q352.782 125.148 352.589 125.109Q352.396 125.071 352.206 125.023Q352.016 124.976 351.828 124.919Q351.64 124.862 351.455 124.796Q351.27 124.729 351.089 124.654Q350.907 124.579 350.73 124.495Q350.552 124.411 350.379 124.319Q350.206 124.226 350.037 124.125Q349.869 124.024 349.706 123.915Q349.542 123.806 349.385 123.689Q349.227 123.572 349.075 123.447Q348.923 123.323 348.778 123.191Q348.632 123.059 348.493 122.92Q348.355 122.781 348.223 122.636Q348.091 122.49 347.966 122.339Q347.842 122.187 347.725 122.029Q347.608 121.871 347.499 121.708Q347.39 121.545 347.289 121.376Q347.188 121.208 347.095 121.035Q347.003 120.862 346.919 120.684Q346.835 120.507 346.759 120.325Q346.684 120.144 346.618 119.959Q346.552 119.774 346.495 119.586Q346.438 119.398 346.39 119.208Q346.343 119.017 346.304 118.825Q346.266 118.632 346.237 118.438Q346.208 118.244 346.189 118.048Q346.17 117.853 346.16 117.657Q346.151 117.461 346.151 117.264L346.151 106.713Q346.151 106.516 346.16 106.32Q346.17 106.124 346.189 105.928Q346.208 105.733 346.237 105.539Q346.266 105.345 346.304 105.152Q346.343 104.959 346.39 104.769Q346.438 104.578 346.495 104.391Q346.552 104.203 346.618 104.018Q346.684 103.833 346.759 103.651Q346.835 103.47 346.919 103.292Q347.003 103.115 347.095 102.942Q347.188 102.769 347.289 102.6Q347.39 102.432 347.499 102.268Q347.608 102.105 347.725 101.947Q347.842 101.79 347.966 101.638Q348.091 101.486 348.223 101.341Q348.355 101.195 348.493 101.056Q348.632 100.917 348.778 100.786Q348.923 100.654 349.075 100.529Q349.227 100.405 349.385 100.288Q349.542 100.171 349.706 100.062Q349.869 99.9525 350.037 99.8515Q350.206 99.7506 350.379 99.658Q350.552 99.5654 350.73 99.4815Q350.907 99.3975 351.089 99.3224Q351.27 99.2472 351.455 99.1811Q351.64 99.1149 351.828 99.0579Q352.016 99.0009 352.206 98.9532Q352.396 98.9055 352.589 98.8672Q352.782 98.8289 352.976 98.8001Q353.17 98.7713 353.366 98.752Q353.561 98.7328 353.757 98.7231Q353.953 98.7135 354.15 98.7135Z" id="Rectangle" fill="#D3D3D3" fill-rule="evenodd" stroke="none" />
      <path d="M155.962 98.7134L309.483 98.7134Q309.679 98.7134 309.876 98.723Q310.072 98.7327 310.267 98.7519Q310.462 98.7711 310.657 98.7999Q310.851 98.8288 311.044 98.8671Q311.236 98.9054 311.427 98.9531Q311.617 99.0008 311.805 99.0578Q311.993 99.1148 312.178 99.181Q312.363 99.2471 312.544 99.3223Q312.725 99.3974 312.903 99.4814Q313.081 99.5653 313.254 99.6579Q313.427 99.7504 313.595 99.8514Q313.764 99.9523 313.927 100.061Q314.09 100.171 314.248 100.288Q314.406 100.404 314.558 100.529Q314.709 100.654 314.855 100.786Q315 100.917 315.139 101.056Q315.278 101.195 315.41 101.341Q315.542 101.486 315.666 101.638Q315.791 101.79 315.908 101.947Q316.025 102.105 316.134 102.268Q316.243 102.432 316.344 102.6Q316.445 102.768 316.537 102.942Q316.63 103.115 316.714 103.292Q316.798 103.47 316.873 103.651Q316.948 103.833 317.014 104.018Q317.081 104.202 317.138 104.39Q317.195 104.578 317.242 104.769Q317.29 104.959 317.328 105.152Q317.367 105.344 317.395 105.539Q317.424 105.733 317.444 105.928Q317.463 106.124 317.472 106.32Q317.482 106.516 317.482 106.712L317.482 117.264Q317.482 117.46 317.472 117.657Q317.463 117.853 317.443 118.048Q317.424 118.244 317.395 118.438Q317.367 118.632 317.328 118.825Q317.29 119.017 317.242 119.208Q317.195 119.398 317.138 119.586Q317.081 119.774 317.014 119.959Q316.948 120.144 316.873 120.325Q316.798 120.507 316.714 120.684Q316.63 120.862 316.537 121.035Q316.445 121.208 316.344 121.376Q316.243 121.545 316.134 121.708Q316.025 121.871 315.908 122.029Q315.791 122.187 315.666 122.339Q315.542 122.49 315.41 122.636Q315.278 122.781 315.139 122.92Q315 123.059 314.855 123.191Q314.709 123.323 314.558 123.447Q314.406 123.572 314.248 123.689Q314.09 123.806 313.927 123.915Q313.764 124.024 313.595 124.125Q313.427 124.226 313.254 124.319Q313.081 124.411 312.903 124.495Q312.725 124.579 312.544 124.654Q312.363 124.729 312.178 124.795Q311.993 124.862 311.805 124.919Q311.617 124.976 311.427 125.023Q311.236 125.071 311.044 125.109Q310.851 125.148 310.657 125.176Q310.462 125.205 310.267 125.225Q310.072 125.244 309.876 125.253Q309.679 125.263 309.483 125.263L155.962 125.263Q155.766 125.263 155.57 125.253Q155.374 125.244 155.178 125.225Q154.983 125.205 154.789 125.176Q154.594 125.148 154.402 125.109Q154.209 125.071 154.019 125.023Q153.828 124.976 153.64 124.919Q153.452 124.862 153.268 124.795Q153.083 124.729 152.901 124.654Q152.72 124.579 152.542 124.495Q152.365 124.411 152.192 124.319Q152.018 124.226 151.85 124.125Q151.682 124.024 151.518 123.915Q151.355 123.806 151.197 123.689Q151.04 123.572 150.888 123.447Q150.736 123.323 150.591 123.191Q150.445 123.059 150.306 122.92Q150.167 122.781 150.035 122.636Q149.904 122.49 149.779 122.339Q149.654 122.187 149.538 122.029Q149.421 121.871 149.311 121.708Q149.202 121.545 149.101 121.376Q149 121.208 148.908 121.035Q148.815 120.862 148.731 120.684Q148.647 120.507 148.572 120.325Q148.497 120.144 148.431 119.959Q148.365 119.774 148.308 119.586Q148.251 119.398 148.203 119.208Q148.155 119.017 148.117 118.825Q148.079 118.632 148.05 118.438Q148.021 118.244 148.002 118.048Q147.983 117.853 147.973 117.657Q147.963 117.46 147.963 117.264L147.963 106.712Q147.963 106.516 147.973 106.32Q147.983 106.124 148.002 105.928Q148.021 105.733 148.05 105.539Q148.079 105.344 148.117 105.152Q148.155 104.959 148.203 104.769Q148.251 104.578 148.308 104.39Q148.365 104.202 148.431 104.018Q148.497 103.833 148.572 103.651Q148.647 103.47 148.731 103.292Q148.815 103.115 148.908 102.942Q149 102.768 149.101 102.6Q149.202 102.432 149.311 102.268Q149.421 102.105 149.538 101.947Q149.654 101.79 149.779 101.638Q149.904 101.486 150.036 101.341Q150.167 101.195 150.306 101.056Q150.445 100.917 150.591 100.786Q150.736 100.654 150.888 100.529Q151.04 100.405 151.197 100.288Q151.355 100.171 151.518 100.061Q151.682 99.9523 151.85 99.8514Q152.018 99.7505 152.192 99.6579Q152.365 99.5653 152.542 99.4814Q152.72 99.3974 152.901 99.3223Q153.083 99.2471 153.268 99.181Q153.452 99.1148 153.64 99.0578Q153.828 99.0008 154.019 98.9531Q154.209 98.9054 154.402 98.8671Q154.594 98.8288 154.789 98.8Q154.983 98.7711 155.178 98.7519Q155.374 98.7327 155.57 98.723Q155.766 98.7134 155.962 98.7134Z" id="Rectangle-2" fill="#D3D3D3" fill-rule="evenodd" stroke="none" />
      <g id="Group-7" transform="translate(73.17566 167.14429)">
        <path d="M0 27.4221C0 12.2773 12.2773 0 27.4221 0C42.567 0 54.8443 12.2773 54.8443 27.4221C54.8443 42.567 42.567 54.8443 27.4221 54.8443C12.2773 54.8443 0 42.567 0 27.4221Z" id="Ellipse" fill="#2B2D42" fill-rule="evenodd" stroke="#2B2D42" stroke-opacity="0.49803922" stroke-width="10" />
        <g id="Contacts-icon" transform="translate(4.0128784 3.3441162)">
          <path d="M0 0L48.1559 0L48.1559 48.1559L0 48.1559L0 0Z" id="Background" fill="none" fill-rule="evenodd" stroke="none" />
          <g clip-path="url(#mask_1)">
            <path d="M23.7771 10.2332C19.5002 10.2332 16.012 13.7214 16.012 17.9983C16.012 22.2752 19.5002 25.7634 23.7771 25.7634C28.054 25.7634 31.5423 22.2752 31.5423 17.9983C31.5423 13.7214 28.054 10.2332 23.7771 10.2332L23.7771 10.2332ZM23.7771 25.7634C16.6489 25.7634 10.8351 31.5772 10.8351 38.7053L13.4235 38.7053C13.4235 32.9725 18.0442 28.3518 23.7771 28.3518C29.5099 28.3518 34.1306 32.9725 34.1306 38.7053L36.719 38.7053C36.719 31.5772 30.9052 25.7634 23.7771 25.7634L23.7771 25.7634ZM23.7771 12.8215C26.6486 12.8215 28.9539 15.1268 28.9539 17.9983C28.9539 20.8698 26.6486 23.1751 23.7771 23.1751C20.9056 23.1751 18.6003 20.8698 18.6003 17.9983C18.6003 15.1268 20.9056 12.8215 23.7771 12.8215L23.7771 12.8215Z" id="Shape" fill="#FFFFFF" fill-rule="evenodd" stroke="none" />
          </g>
        </g>
      </g>
      <path d="M246.954 181.603L551.296 181.603Q551.493 181.603 551.689 181.613Q551.885 181.623 552.08 181.642Q552.276 181.661 552.47 181.69Q552.664 181.719 552.857 181.757Q553.049 181.795 553.24 181.843Q553.43 181.891 553.618 181.948Q553.806 182.005 553.991 182.071Q554.176 182.137 554.357 182.212Q554.539 182.287 554.716 182.371Q554.894 182.455 555.067 182.548Q555.24 182.64 555.408 182.741Q555.577 182.842 555.74 182.951Q555.904 183.06 556.061 183.177Q556.219 183.294 556.371 183.419Q556.523 183.544 556.668 183.675Q556.814 183.807 556.952 183.946Q557.091 184.085 557.223 184.23Q557.355 184.376 557.48 184.528Q557.604 184.68 557.721 184.837Q557.838 184.995 557.947 185.158Q558.056 185.322 558.157 185.49Q558.258 185.658 558.351 185.832Q558.443 186.005 558.527 186.182Q558.611 186.36 558.686 186.541Q558.761 186.723 558.828 186.907Q558.894 187.092 558.951 187.28Q559.008 187.468 559.055 187.659Q559.103 187.849 559.141 188.042Q559.18 188.234 559.209 188.429Q559.237 188.623 559.257 188.818Q559.276 189.014 559.286 189.21Q559.295 189.406 559.295 189.602L559.295 200.154Q559.295 200.35 559.286 200.546Q559.276 200.743 559.257 200.938Q559.237 201.133 559.209 201.328Q559.18 201.522 559.141 201.714Q559.103 201.907 559.055 202.098Q559.008 202.288 558.951 202.476Q558.894 202.664 558.828 202.849Q558.761 203.034 558.686 203.215Q558.611 203.396 558.527 203.574Q558.443 203.751 558.351 203.925Q558.258 204.098 558.157 204.266Q558.056 204.435 557.947 204.598Q557.838 204.761 557.721 204.919Q557.604 205.077 557.479 205.228Q557.355 205.38 557.223 205.526Q557.091 205.671 556.952 205.81Q556.813 205.949 556.668 206.081Q556.523 206.213 556.371 206.337Q556.219 206.462 556.061 206.579Q555.903 206.696 555.74 206.805Q555.577 206.914 555.408 207.015Q555.24 207.116 555.067 207.208Q554.894 207.301 554.716 207.385Q554.539 207.469 554.357 207.544Q554.176 207.619 553.991 207.685Q553.806 207.751 553.618 207.809Q553.43 207.865 553.24 207.913Q553.049 207.961 552.857 207.999Q552.664 208.038 552.47 208.066Q552.276 208.095 552.08 208.114Q551.885 208.134 551.689 208.143Q551.493 208.153 551.296 208.153L246.954 208.153Q246.757 208.153 246.561 208.143Q246.365 208.134 246.17 208.114Q245.974 208.095 245.78 208.066Q245.586 208.038 245.393 207.999Q245.201 207.961 245.01 207.913Q244.82 207.865 244.632 207.808Q244.444 207.751 244.259 207.685Q244.074 207.619 243.893 207.544Q243.711 207.469 243.534 207.385Q243.356 207.301 243.183 207.208Q243.01 207.116 242.841 207.015Q242.673 206.914 242.51 206.805Q242.347 206.696 242.189 206.579Q242.031 206.462 241.879 206.337Q241.728 206.213 241.582 206.081Q241.437 205.949 241.298 205.81Q241.159 205.671 241.027 205.526Q240.895 205.38 240.77 205.228Q240.646 205.077 240.529 204.919Q240.412 204.761 240.303 204.598Q240.194 204.435 240.093 204.266Q239.992 204.098 239.899 203.925Q239.807 203.751 239.723 203.574Q239.639 203.396 239.564 203.215Q239.489 203.034 239.422 202.849Q239.356 202.664 239.299 202.476Q239.242 202.288 239.195 202.098Q239.147 201.907 239.109 201.714Q239.07 201.522 239.041 201.328Q239.013 201.133 238.993 200.938Q238.974 200.743 238.964 200.546Q238.955 200.35 238.955 200.154L238.955 189.602Q238.955 189.406 238.964 189.21Q238.974 189.014 238.993 188.818Q239.013 188.623 239.041 188.429Q239.07 188.234 239.109 188.042Q239.147 187.849 239.195 187.659Q239.242 187.468 239.299 187.28Q239.356 187.092 239.422 186.907Q239.489 186.723 239.564 186.541Q239.639 186.36 239.723 186.182Q239.807 186.005 239.899 185.832Q239.992 185.658 240.093 185.49Q240.194 185.322 240.303 185.158Q240.412 184.995 240.529 184.837Q240.646 184.68 240.771 184.528Q240.895 184.376 241.027 184.23Q241.159 184.085 241.298 183.946Q241.437 183.807 241.582 183.675Q241.728 183.544 241.879 183.419Q242.031 183.294 242.189 183.177Q242.347 183.06 242.51 182.951Q242.673 182.842 242.841 182.741Q243.01 182.64 243.183 182.548Q243.356 182.455 243.534 182.371Q243.711 182.287 243.893 182.212Q244.074 182.137 244.259 182.071Q244.444 182.005 244.632 181.948Q244.82 181.891 245.01 181.843Q245.201 181.795 245.393 181.757Q245.586 181.719 245.78 181.69Q245.974 181.661 246.17 181.642Q246.365 181.623 246.561 181.613Q246.757 181.603 246.954 181.603Z" id="Rectangle" fill="#D3D3D3" fill-rule="evenodd" stroke="none" />
      <path d="M612.254 181.728L582.252 181.728Q582.056 181.728 581.859 181.737Q581.663 181.747 581.468 181.766Q581.272 181.786 581.078 181.814Q580.884 181.843 580.691 181.881Q580.499 181.92 580.308 181.967Q580.118 182.015 579.93 182.072Q579.742 182.129 579.557 182.195Q579.372 182.262 579.191 182.337Q579.009 182.412 578.832 182.496Q578.654 182.58 578.481 182.672Q578.308 182.765 578.14 182.866Q577.971 182.967 577.808 183.076Q577.645 183.185 577.487 183.302Q577.329 183.419 577.177 183.543Q577.026 183.668 576.88 183.8Q576.735 183.932 576.596 184.071Q576.457 184.209 576.325 184.355Q576.193 184.5 576.069 184.652Q575.944 184.804 575.827 184.962Q575.71 185.119 575.601 185.283Q575.492 185.446 575.391 185.614Q575.29 185.783 575.197 185.956Q575.105 186.129 575.021 186.307Q574.937 186.484 574.862 186.666Q574.787 186.847 574.721 187.032Q574.654 187.217 574.597 187.405Q574.54 187.593 574.493 187.783Q574.445 187.974 574.407 188.166Q574.368 188.359 574.339 188.553Q574.311 188.747 574.291 188.943Q574.272 189.138 574.263 189.334Q574.253 189.53 574.253 189.727L574.253 200.278Q574.253 200.475 574.263 200.671Q574.272 200.867 574.291 201.063Q574.311 201.258 574.339 201.452Q574.368 201.646 574.407 201.839Q574.445 202.032 574.493 202.222Q574.54 202.413 574.597 202.6Q574.654 202.788 574.721 202.973Q574.787 203.158 574.862 203.34Q574.937 203.521 575.021 203.698Q575.105 203.876 575.197 204.049Q575.29 204.222 575.391 204.391Q575.492 204.559 575.601 204.722Q575.71 204.886 575.827 205.043Q575.944 205.201 576.069 205.353Q576.193 205.505 576.325 205.65Q576.457 205.796 576.596 205.935Q576.735 206.073 576.88 206.205Q577.026 206.337 577.177 206.462Q577.329 206.586 577.487 206.703Q577.645 206.82 577.808 206.929Q577.971 207.038 578.14 207.139Q578.308 207.24 578.481 207.333Q578.654 207.425 578.832 207.509Q579.009 207.593 579.191 207.669Q579.372 207.744 579.557 207.81Q579.742 207.876 579.93 207.933Q580.118 207.99 580.308 208.038Q580.499 208.085 580.691 208.124Q580.884 208.162 581.078 208.191Q581.272 208.22 581.468 208.239Q581.663 208.258 581.859 208.268Q582.056 208.277 582.252 208.277L612.254 208.277Q612.45 208.277 612.646 208.268Q612.843 208.258 613.038 208.239Q613.233 208.22 613.428 208.191Q613.622 208.162 613.814 208.124Q614.007 208.085 614.198 208.038Q614.388 207.99 614.576 207.933Q614.764 207.876 614.949 207.81Q615.134 207.744 615.315 207.669Q615.496 207.593 615.674 207.509Q615.851 207.425 616.025 207.333Q616.198 207.24 616.366 207.139Q616.535 207.038 616.698 206.929Q616.861 206.82 617.019 206.703Q617.177 206.586 617.328 206.462Q617.48 206.337 617.626 206.205Q617.771 206.073 617.91 205.935Q618.049 205.796 618.181 205.65Q618.313 205.505 618.437 205.353Q618.562 205.201 618.679 205.043Q618.796 204.886 618.905 204.722Q619.014 204.559 619.115 204.391Q619.216 204.222 619.308 204.049Q619.401 203.876 619.485 203.698Q619.569 203.521 619.644 203.34Q619.719 203.158 619.785 202.973Q619.852 202.788 619.909 202.6Q619.966 202.413 620.013 202.222Q620.061 202.032 620.099 201.839Q620.138 201.646 620.166 201.452Q620.195 201.258 620.214 201.063Q620.234 200.867 620.243 200.671Q620.253 200.475 620.253 200.278L620.253 189.727Q620.253 189.53 620.243 189.334Q620.234 189.138 620.214 188.943Q620.195 188.747 620.166 188.553Q620.138 188.359 620.099 188.166Q620.061 187.974 620.013 187.783Q619.966 187.593 619.909 187.405Q619.851 187.217 619.785 187.032Q619.719 186.847 619.644 186.666Q619.569 186.484 619.485 186.307Q619.401 186.129 619.308 185.956Q619.216 185.783 619.115 185.614Q619.014 185.446 618.905 185.283Q618.796 185.119 618.679 184.962Q618.562 184.804 618.437 184.652Q618.313 184.5 618.181 184.355Q618.049 184.209 617.91 184.071Q617.771 183.932 617.626 183.8Q617.48 183.668 617.328 183.543Q617.177 183.419 617.019 183.302Q616.861 183.185 616.698 183.076Q616.535 182.967 616.366 182.866Q616.198 182.765 616.025 182.672Q615.851 182.58 615.674 182.496Q615.496 182.412 615.315 182.337Q615.134 182.262 614.949 182.195Q614.764 182.129 614.576 182.072Q614.388 182.015 614.198 181.967Q614.007 181.92 613.814 181.881Q613.622 181.843 613.428 181.814Q613.233 181.786 613.038 181.766Q612.843 181.747 612.646 181.737Q612.45 181.728 612.254 181.728Z" id="Rectangle-3" fill="#D3D3D3" fill-rule="evenodd" stroke="none" />
      <path d="M154.716 180.73L212.259 180.73Q212.455 180.73 212.651 180.74Q212.848 180.75 213.043 180.769Q213.238 180.788 213.433 180.817Q213.627 180.846 213.819 180.884Q214.012 180.922 214.203 180.97Q214.393 181.018 214.581 181.075Q214.769 181.132 214.954 181.198Q215.139 181.264 215.32 181.339Q215.501 181.414 215.679 181.498Q215.857 181.582 216.03 181.675Q216.203 181.768 216.371 181.868Q216.54 181.969 216.703 182.079Q216.866 182.188 217.024 182.305Q217.182 182.422 217.333 182.546Q217.485 182.671 217.631 182.803Q217.776 182.934 217.915 183.073Q218.054 183.212 218.186 183.358Q218.318 183.503 218.442 183.655Q218.567 183.807 218.684 183.964Q218.801 184.122 218.91 184.285Q219.019 184.449 219.12 184.617Q219.221 184.786 219.313 184.959Q219.406 185.132 219.49 185.309Q219.574 185.487 219.649 185.668Q219.724 185.85 219.79 186.035Q219.857 186.22 219.914 186.407Q219.971 186.595 220.018 186.786Q220.066 186.976 220.104 187.169Q220.143 187.362 220.171 187.556Q220.2 187.75 220.219 187.945Q220.239 188.141 220.248 188.337Q220.258 188.533 220.258 188.729L220.258 199.281Q220.258 199.478 220.248 199.674Q220.239 199.87 220.219 200.065Q220.2 200.261 220.171 200.455Q220.143 200.649 220.104 200.842Q220.066 201.034 220.018 201.225Q219.971 201.415 219.914 201.603Q219.857 201.791 219.79 201.976Q219.724 202.161 219.649 202.342Q219.574 202.524 219.49 202.701Q219.406 202.879 219.313 203.052Q219.221 203.225 219.12 203.393Q219.019 203.562 218.91 203.725Q218.801 203.888 218.684 204.046Q218.567 204.204 218.442 204.356Q218.318 204.507 218.186 204.653Q218.054 204.798 217.915 204.937Q217.776 205.076 217.631 205.208Q217.485 205.34 217.333 205.464Q217.182 205.589 217.024 205.706Q216.866 205.823 216.703 205.932Q216.54 206.041 216.371 206.142Q216.203 206.243 216.03 206.336Q215.857 206.428 215.679 206.512Q215.501 206.596 215.32 206.671Q215.139 206.746 214.954 206.813Q214.769 206.879 214.581 206.936Q214.393 206.993 214.203 207.04Q214.012 207.088 213.819 207.126Q213.627 207.165 213.433 207.194Q213.238 207.222 213.043 207.242Q212.848 207.261 212.651 207.271Q212.455 207.28 212.259 207.28L154.716 207.28Q154.519 207.28 154.323 207.271Q154.127 207.261 153.932 207.242Q153.736 207.222 153.542 207.194Q153.348 207.165 153.155 207.126Q152.963 207.088 152.772 207.04Q152.582 206.993 152.394 206.936Q152.206 206.879 152.021 206.813Q151.836 206.746 151.655 206.671Q151.473 206.596 151.296 206.512Q151.118 206.428 150.945 206.336Q150.772 206.243 150.603 206.142Q150.435 206.041 150.272 205.932Q150.109 205.823 149.951 205.706Q149.793 205.589 149.641 205.464Q149.489 205.34 149.344 205.208Q149.198 205.076 149.06 204.937Q148.921 204.798 148.789 204.653Q148.657 204.507 148.532 204.356Q148.408 204.204 148.291 204.046Q148.174 203.888 148.065 203.725Q147.956 203.562 147.855 203.393Q147.754 203.225 147.661 203.052Q147.569 202.879 147.485 202.701Q147.401 202.524 147.326 202.342Q147.251 202.161 147.184 201.976Q147.118 201.791 147.061 201.603Q147.004 201.415 146.957 201.225Q146.909 201.034 146.87 200.842Q146.832 200.649 146.803 200.455Q146.775 200.261 146.755 200.065Q146.736 199.87 146.726 199.674Q146.717 199.478 146.717 199.281L146.717 188.729Q146.717 188.533 146.726 188.337Q146.736 188.141 146.755 187.945Q146.775 187.75 146.803 187.556Q146.832 187.362 146.87 187.169Q146.909 186.976 146.957 186.786Q147.004 186.595 147.061 186.407Q147.118 186.22 147.184 186.035Q147.251 185.85 147.326 185.668Q147.401 185.487 147.485 185.309Q147.569 185.132 147.661 184.959Q147.754 184.786 147.855 184.617Q147.956 184.449 148.065 184.285Q148.174 184.122 148.291 183.964Q148.408 183.807 148.532 183.655Q148.657 183.503 148.789 183.358Q148.921 183.212 149.06 183.073Q149.199 182.934 149.344 182.803Q149.489 182.671 149.641 182.546Q149.793 182.422 149.951 182.305Q150.109 182.188 150.272 182.079Q150.435 181.969 150.603 181.868Q150.772 181.768 150.945 181.675Q151.118 181.582 151.296 181.498Q151.473 181.414 151.655 181.339Q151.836 181.264 152.021 181.198Q152.206 181.132 152.394 181.075Q152.582 181.018 152.772 180.97Q152.963 180.922 153.155 180.884Q153.348 180.846 153.542 180.817Q153.736 180.788 153.932 180.769Q154.127 180.75 154.323 180.74Q154.519 180.73 154.716 180.73L154.716 180.73Z" id="Rectangle-2" fill="#D3D3D3" fill-rule="evenodd" stroke="none" />
      <g id="01" fill="#DFDFDF">
        <path d="M7.536 43.2287Q10.464 47.3807 15.6 47.3807Q20.736 47.3807 23.664 43.2287Q26.592 39.0767 26.592 31.3967Q26.592 23.6687 23.664 19.6367Q20.736 15.6047 15.6 15.6047Q10.464 15.6047 7.536 19.6367Q4.608 23.6687 4.608 31.3967Q4.608 39.0767 7.536 43.2287ZM34.656 43.5407L34.656 46.8047L55.44 46.8047L55.44 43.5407L47.424 43.5407L47.424 16.1807L44.496 16.1807Q43.008 16.9967 41.184 17.5247Q39.36 18.0527 36.624 18.4367L36.624 20.9807L43.488 20.9807L43.488 43.5407L34.656 43.5407ZM20.856 41.0927Q18.816 44.2127 15.6 44.2127Q12.384 44.2127 10.344 41.0927Q8.304 37.9727 8.304 31.3967Q8.304 28.0847 8.832 25.7087Q9.36 23.3327 10.344 21.7727Q11.328 20.2127 12.672 19.4927Q14.016 18.7727 15.6 18.7727Q17.184 18.7727 18.528 19.4927Q19.872 20.2127 20.856 21.7727Q21.84 23.3327 22.368 25.7087Q22.896 28.0847 22.896 31.3967Q22.896 37.9727 20.856 41.0927ZM13.512 33.4367Q14.4 34.2767 15.6 34.2767Q16.8 34.2767 17.688 33.4367Q18.576 32.5967 18.576 31.0607Q18.576 29.5727 17.688 28.7327Q16.8 27.8927 15.6 27.8927Q14.4 27.8927 13.512 28.7327Q12.624 29.5727 12.624 31.0607Q12.624 32.5967 13.512 33.4367Z" />
      </g>
      <g id="02" fill="#DFDFDF" transform="translate(0.7000122 83)">
        <path d="M7.536 43.2287Q10.464 47.3807 15.6 47.3807Q20.736 47.3807 23.664 43.2287Q26.592 39.0767 26.592 31.3967Q26.592 23.6687 23.664 19.6367Q20.736 15.6047 15.6 15.6047Q10.464 15.6047 7.536 19.6367Q4.608 23.6687 4.608 31.3967Q4.608 39.0767 7.536 43.2287ZM33.504 44.4527L33.504 46.8047L55.056 46.8047L55.056 43.3967L44.976 43.3967Q43.584 43.3967 42.144 43.4927L39.264 43.6847Q42.384 40.8527 44.976 38.3327Q47.568 35.8127 49.44 33.4847Q51.312 31.1567 52.344 28.9727Q53.376 26.7887 53.376 24.6287Q53.376 22.6127 52.68 20.9327Q51.984 19.2527 50.688 18.0767Q49.392 16.9007 47.544 16.2527Q45.696 15.6047 43.392 15.6047Q40.128 15.6047 37.752 16.8767Q35.376 18.1487 33.312 20.2607L35.568 22.5167Q37.056 20.9807 38.904 19.9007Q40.752 18.8207 42.912 18.8207Q46.32 18.8207 47.952 20.5007Q49.584 22.1807 49.584 24.8207Q49.584 26.7407 48.528 28.7567Q47.472 30.7727 45.432 33.1007Q43.392 35.4287 40.392 38.2127Q37.392 40.9967 33.504 44.4527ZM20.856 41.0927Q18.816 44.2127 15.6 44.2127Q12.384 44.2127 10.344 41.0927Q8.304 37.9727 8.304 31.3967Q8.304 28.0847 8.832 25.7087Q9.36 23.3327 10.344 21.7727Q11.328 20.2127 12.672 19.4927Q14.016 18.7727 15.6 18.7727Q17.184 18.7727 18.528 19.4927Q19.872 20.2127 20.856 21.7727Q21.84 23.3327 22.368 25.7087Q22.896 28.0847 22.896 31.3967Q22.896 37.9727 20.856 41.0927ZM13.512 33.4367Q14.4 34.2767 15.6 34.2767Q16.8 34.2767 17.688 33.4367Q18.576 32.5967 18.576 31.0607Q18.576 29.5727 17.688 28.7327Q16.8 27.8927 15.6 27.8927Q14.4 27.8927 13.512 28.7327Q12.624 29.5727 12.624 31.0607Q12.624 32.5967 13.512 33.4367Z" />
      </g>
      <g id="03" fill="#DFDFDF" transform="translate(0.2000122 165)">
        <path d="M7.536 43.2287Q10.464 47.3807 15.6 47.3807Q20.736 47.3807 23.664 43.2287Q26.592 39.0767 26.592 31.3967Q26.592 23.6687 23.664 19.6367Q20.736 15.6047 15.6 15.6047Q10.464 15.6047 7.536 19.6367Q4.608 23.6687 4.608 31.3967Q4.608 39.0767 7.536 43.2287ZM37.104 46.0607Q39.792 47.3807 43.776 47.3807Q46.08 47.3807 48.096 46.7807Q50.112 46.1807 51.624 45.0527Q53.136 43.9247 54 42.2927Q54.864 40.6607 54.864 38.6447Q54.864 37.0607 54.264 35.7647Q53.664 34.4687 52.608 33.4847Q51.552 32.5007 50.184 31.8527Q48.816 31.2047 47.28 30.8687L47.28 30.6767Q50.16 29.7167 51.984 27.9407Q53.808 26.1647 53.808 23.3807Q53.808 21.5087 53.04 20.0687Q52.272 18.6287 50.904 17.6447Q49.536 16.6607 47.688 16.1327Q45.84 15.6047 43.68 15.6047Q40.704 15.6047 38.256 16.6847Q35.808 17.7647 33.888 19.4447L36 21.9407Q37.536 20.5487 39.456 19.6847Q41.376 18.8207 43.536 18.8207Q46.368 18.8207 48.072 20.1167Q49.776 21.4127 49.776 23.6687Q49.776 24.8687 49.224 25.9247Q48.672 26.9807 47.472 27.7487Q46.272 28.5167 44.376 28.9487Q42.48 29.3807 39.744 29.3807L39.744 32.4047Q42.768 32.4047 44.88 32.8367Q46.992 33.2687 48.336 34.0847Q49.68 34.9007 50.28 36.0287Q50.88 37.1567 50.88 38.5007Q50.88 39.7967 50.328 40.8287Q49.776 41.8607 48.792 42.5807Q47.808 43.3007 46.464 43.7087Q45.12 44.1167 43.536 44.1167Q40.56 44.1167 38.424 43.0127Q36.288 41.9087 34.752 40.4687L32.736 43.0607Q34.416 44.7407 37.104 46.0607ZM20.856 41.0927Q18.816 44.2127 15.6 44.2127Q12.384 44.2127 10.344 41.0927Q8.304 37.9727 8.304 31.3967Q8.304 28.0847 8.832 25.7087Q9.36 23.3327 10.344 21.7727Q11.328 20.2127 12.672 19.4927Q14.016 18.7727 15.6 18.7727Q17.184 18.7727 18.528 19.4927Q19.872 20.2127 20.856 21.7727Q21.84 23.3327 22.368 25.7087Q22.896 28.0847 22.896 31.3967Q22.896 37.9727 20.856 41.0927ZM13.512 33.4367Q14.4 34.2767 15.6 34.2767Q16.8 34.2767 17.688 33.4367Q18.576 32.5967 18.576 31.0607Q18.576 29.5727 17.688 28.7327Q16.8 27.8927 15.6 27.8927Q14.4 27.8927 13.512 28.7327Q12.624 29.5727 12.624 31.0607Q12.624 32.5967 13.512 33.4367Z" />
      </g>
    </g>
  </g>
</svg>