<?xml version="1.0" encoding="utf-8"?>
<svg width="446px" height="258px" viewBox="0 0 446 258" version="1.1" xmlns:xlink="http://www.w3.org/1999/xlink" xmlns="http://www.w3.org/2000/svg">
  <g id="Group-5" transform="translate(5.5 5.5)">
    <path d="M25.281 168.73L173.078 24.8225" id="Line" fill="none" fill-rule="evenodd" stroke="#59ADFF" stroke-opacity="0.49803922" stroke-width="2" stroke-linecap="square" />
    <path d="M25.2249 167.64L199.506 122.006" id="Line-4" fill="none" fill-rule="evenodd" stroke="#59ADFF" stroke-opacity="0.49803922" stroke-width="2" stroke-linecap="square" />
    <path d="M25.2249 168.557L264.861 221.529" id="Line-7" fill="none" fill-rule="evenodd" stroke="#59ADFF" stroke-opacity="0.49803922" stroke-width="2" stroke-linecap="square" />
    <path d="M265.435 221.53L409.331 182.546" id="Line-8" fill="none" fill-rule="evenodd" stroke="#59ADFF" stroke-opacity="0.49803922" stroke-width="2" stroke-linecap="square" />
    <path d="M173.134 24.3168L357.735 50.1038" id="Line-2" fill="none" fill-rule="evenodd" stroke="#59ADFF" stroke-opacity="0.49803922" stroke-width="2" stroke-linecap="square" />
    <path d="M357.735 50.5737L409.331 182.546" id="Line-6" fill="none" fill-rule="evenodd" stroke="#59ADFF" stroke-opacity="0.49803922" stroke-width="2" stroke-linecap="square" />
    <path d="M173.134 24.3168L199.506 121.777" id="Line-5" fill="none" fill-rule="evenodd" stroke="#59ADFF" stroke-opacity="0.49803922" stroke-width="2" stroke-linecap="square" />
    <path d="M199.506 121.776L409.331 182.546" id="Line-3" fill="none" fill-rule="evenodd" stroke="#59ADFF" stroke-opacity="0.49803922" stroke-width="2" stroke-linecap="square" />
    <path d="M0 168.73C0 154.768 11.3187 143.449 25.2811 143.449C39.2435 143.449 50.5622 154.768 50.5622 168.73C50.5622 182.693 39.2435 194.011 25.2811 194.011C11.3187 194.011 0 182.693 0 168.73Z" id="Ellipse" fill="#179FFF" fill-rule="evenodd" stroke="#2B2D42" stroke-opacity="0.6117647" stroke-width="11" />
    <path d="M148.944 25.2811C148.944 11.3187 160.262 0 174.225 0C188.187 0 199.506 11.3187 199.506 25.2811C199.506 39.2435 188.187 50.5622 174.225 50.5622C160.262 50.5622 148.944 39.2435 148.944 25.2811Z" id="Ellipse-2" fill="#179FFF" fill-rule="evenodd" stroke="#2B2D42" stroke-opacity="0.6117647" stroke-width="11" />
    <path d="M174.281 122.062C174.281 108.1 185.6 96.781 199.562 96.781C213.524 96.781 224.843 108.1 224.843 122.062C224.843 136.024 213.524 147.343 199.562 147.343C185.6 147.343 174.281 136.024 174.281 122.062Z" id="Ellipse-3" fill="#179FFF" fill-rule="evenodd" stroke="#2B2D42" stroke-opacity="0.6117647" stroke-width="11" />
    <path d="M240.21 221.586C240.21 207.623 251.529 196.305 265.491 196.305C279.453 196.305 290.772 207.623 290.772 221.586C290.772 235.548 279.453 246.867 265.491 246.867C251.529 246.867 240.21 235.548 240.21 221.586Z" id="Ellipse-6" fill="#179FFF" fill-rule="evenodd" stroke="#2B2D42" stroke-opacity="0.6117647" stroke-width="11" />
    <path d="M384.106 182.602C384.106 168.639 395.425 157.321 409.387 157.321C423.35 157.321 434.668 168.639 434.668 182.602C434.668 196.564 423.35 207.883 409.387 207.883C395.425 207.883 384.106 196.564 384.106 182.602Z" id="Ellipse-5" fill="#179FFF" fill-rule="evenodd" stroke="#2B2D42" stroke-opacity="0.6117647" stroke-width="11" />
    <path d="M333.544 49.5979C333.544 35.6355 344.863 24.3168 358.825 24.3168C372.788 24.3168 384.106 35.6355 384.106 49.5979C384.106 63.5602 372.788 74.879 358.825 74.879C344.863 74.879 333.544 63.5602 333.544 49.5979Z" id="Ellipse-4" fill="#179FFF" fill-rule="evenodd" stroke="#2B2D42" stroke-opacity="0.6117647" stroke-width="11" />
  </g>
</svg>